<?xml version="1.0" encoding="utf-8" standalone="no"?>
<!DOCTYPE svg PUBLIC "-//W3C//DTD SVG 1.1//EN"
  "http://www.w3.org/Graphics/SVG/1.1/DTD/svg11.dtd">
<!-- Created with matplotlib (http://matplotlib.org/) -->
<svg height="576pt" version="1.1" viewBox="0 0 720 576" width="720pt" xmlns="http://www.w3.org/2000/svg" xmlns:xlink="http://www.w3.org/1999/xlink">
 <defs>
  <style type="text/css">
*{stroke-linecap:butt;stroke-linejoin:round;stroke-miterlimit:100000;}
  </style>
 </defs>
 <g id="figure_1">
  <g id="patch_1">
   <path d="M 0 576 
L 720 576 
L 720 0 
L 0 0 
z
" style="fill:#ffffff;"/>
  </g>
  <g id="axes_1">
   <g id="patch_2">
    <path d="M 90 518.4 
L 648 518.4 
L 648 57.6 
L 90 57.6 
z
" style="fill:#ffffff;"/>
   </g>
   <g id="line2d_1">
    <path clip-path="url(#peea9ef433d)" d="M 90 482.953846 
L 93.848276 341.169231 
L 101.544828 482.953846 
L 105.393103 482.953846 
L 109.241379 412.061538 
L 116.937931 412.061538 
L 120.786207 341.169231 
L 124.634483 341.169231 
L 128.482759 482.953846 
L 136.17931 341.169231 
L 143.875862 482.953846 
L 147.724138 482.953846 
L 151.572414 199.384615 
L 159.268966 482.953846 
L 163.117241 412.061538 
L 166.965517 482.953846 
L 170.813793 412.061538 
L 174.662069 199.384615 
L 178.510345 482.953846 
L 182.358621 412.061538 
L 186.206897 270.276923 
L 190.055172 482.953846 
L 193.903448 412.061538 
L 197.751724 482.953846 
L 201.6 341.169231 
L 205.448276 128.492308 
L 209.296552 482.953846 
L 213.144828 482.953846 
L 216.993103 412.061538 
L 220.841379 270.276923 
L 232.386207 482.953846 
L 236.234483 270.276923 
L 240.082759 412.061538 
L 243.931034 270.276923 
L 247.77931 482.953846 
L 251.627586 412.061538 
L 267.02069 412.061538 
L 270.868966 341.169231 
L 274.717241 482.953846 
L 278.565517 482.953846 
L 282.413793 341.169231 
L 286.262069 482.953846 
L 293.958621 482.953846 
L 297.806897 412.061538 
L 301.655172 412.061538 
L 305.503448 341.169231 
L 309.351724 412.061538 
L 313.2 412.061538 
L 317.048276 482.953846 
L 320.896552 412.061538 
L 328.593103 412.061538 
L 332.441379 270.276923 
L 336.289655 482.953846 
L 340.137931 412.061538 
L 347.834483 412.061538 
L 351.682759 270.276923 
L 355.531034 270.276923 
L 359.37931 412.061538 
L 363.227586 482.953846 
L 367.075862 482.953846 
L 370.924138 270.276923 
L 374.772414 341.169231 
L 378.62069 482.953846 
L 382.468966 482.953846 
L 386.317241 270.276923 
L 390.165517 341.169231 
L 394.013793 482.953846 
L 401.710345 482.953846 
L 405.558621 412.061538 
L 409.406897 482.953846 
L 413.255172 270.276923 
L 417.103448 128.492308 
L 420.951724 341.169231 
L 424.8 341.169231 
L 428.648276 412.061538 
L 432.496552 412.061538 
L 436.344828 270.276923 
L 440.193103 482.953846 
L 444.041379 412.061538 
L 447.889655 482.953846 
L 451.737931 341.169231 
L 455.586207 341.169231 
L 459.434483 412.061538 
L 463.282759 341.169231 
L 467.131034 341.169231 
L 470.97931 199.384615 
L 474.827586 412.061538 
L 478.675862 412.061538 
L 482.524138 482.953846 
L 486.372414 341.169231 
L 490.22069 412.061538 
L 501.765517 412.061538 
L 505.613793 270.276923 
L 509.462069 412.061538 
L 513.310345 482.953846 
L 517.158621 412.061538 
L 524.855172 412.061538 
L 528.703448 270.276923 
L 532.551724 412.061538 
L 536.4 341.169231 
L 540.248276 482.953846 
L 544.096552 482.953846 
L 547.944828 412.061538 
L 551.793103 482.953846 
L 555.641379 482.953846 
L 559.489655 412.061538 
L 563.337931 482.953846 
L 567.186207 482.953846 
L 574.882759 341.169231 
L 578.731034 482.953846 
L 582.57931 412.061538 
L 586.427586 482.953846 
L 590.275862 412.061538 
L 594.124138 412.061538 
L 597.972414 482.953846 
L 605.668966 341.169231 
L 613.365517 482.953846 
L 621.062069 341.169231 
L 624.910345 482.953846 
L 628.758621 412.061538 
L 632.606897 482.953846 
L 640.303448 341.169231 
L 640.303448 341.169231 
" style="fill:none;stroke:#008000;stroke-dasharray:6.000000,6.000000;stroke-dashoffset:0.0;"/>
   </g>
   <g id="line2d_2">
    <path clip-path="url(#peea9ef433d)" d="M 90 57.6 
L 93.848276 482.953846 
L 97.696552 341.169231 
L 101.544828 412.061538 
L 105.393103 341.169231 
L 109.241379 412.061538 
L 113.089655 341.169231 
L 120.786207 341.169231 
L 124.634483 482.953846 
L 128.482759 412.061538 
L 132.331034 270.276923 
L 136.17931 482.953846 
L 140.027586 270.276923 
L 143.875862 412.061538 
L 147.724138 482.953846 
L 151.572414 199.384615 
L 155.42069 412.061538 
L 159.268966 270.276923 
L 163.117241 270.276923 
L 166.965517 57.6 
L 170.813793 341.169231 
L 174.662069 482.953846 
L 178.510345 482.953846 
L 182.358621 199.384615 
L 186.206897 412.061538 
L 190.055172 341.169231 
L 193.903448 412.061538 
L 197.751724 412.061538 
L 201.6 482.953846 
L 205.448276 412.061538 
L 209.296552 270.276923 
L 213.144828 482.953846 
L 216.993103 412.061538 
L 224.689655 412.061538 
L 228.537931 270.276923 
L 232.386207 412.061538 
L 236.234483 270.276923 
L 240.082759 482.953846 
L 243.931034 341.169231 
L 251.627586 341.169231 
L 255.475862 412.061538 
L 259.324138 341.169231 
L 263.172414 341.169231 
L 267.02069 412.061538 
L 270.868966 341.169231 
L 274.717241 412.061538 
L 278.565517 341.169231 
L 282.413793 412.061538 
L 286.262069 341.169231 
L 290.110345 199.384615 
L 293.958621 482.953846 
L 297.806897 412.061538 
L 301.655172 412.061538 
L 305.503448 341.169231 
L 313.2 341.169231 
L 317.048276 482.953846 
L 320.896552 341.169231 
L 324.744828 341.169231 
L 328.593103 482.953846 
L 332.441379 482.953846 
L 336.289655 341.169231 
L 340.137931 270.276923 
L 343.986207 341.169231 
L 347.834483 341.169231 
L 351.682759 270.276923 
L 355.531034 482.953846 
L 359.37931 270.276923 
L 363.227586 270.276923 
L 367.075862 482.953846 
L 370.924138 412.061538 
L 374.772414 482.953846 
L 378.62069 482.953846 
L 382.468966 341.169231 
L 386.317241 412.061538 
L 390.165517 412.061538 
L 394.013793 270.276923 
L 397.862069 412.061538 
L 401.710345 270.276923 
L 405.558621 412.061538 
L 409.406897 412.061538 
L 413.255172 482.953846 
L 417.103448 341.169231 
L 420.951724 482.953846 
L 424.8 270.276923 
L 432.496552 270.276923 
L 436.344828 341.169231 
L 440.193103 482.953846 
L 444.041379 482.953846 
L 447.889655 412.061538 
L 451.737931 199.384615 
L 455.586207 412.061538 
L 459.434483 482.953846 
L 463.282759 341.169231 
L 467.131034 412.061538 
L 470.97931 412.061538 
L 474.827586 341.169231 
L 478.675862 341.169231 
L 482.524138 482.953846 
L 486.372414 341.169231 
L 490.22069 412.061538 
L 494.068966 412.061538 
L 501.765517 270.276923 
L 505.613793 412.061538 
L 509.462069 199.384615 
L 513.310345 199.384615 
L 517.158621 412.061538 
L 521.006897 341.169231 
L 528.703448 341.169231 
L 536.4 482.953846 
L 540.248276 482.953846 
L 544.096552 128.492308 
L 547.944828 412.061538 
L 555.641379 412.061538 
L 559.489655 482.953846 
L 563.337931 412.061538 
L 567.186207 412.061538 
L 571.034483 482.953846 
L 574.882759 341.169231 
L 578.731034 412.061538 
L 582.57931 270.276923 
L 590.275862 412.061538 
L 597.972414 412.061538 
L 601.82069 482.953846 
L 605.668966 412.061538 
L 609.517241 412.061538 
L 613.365517 270.276923 
L 621.062069 412.061538 
L 624.910345 270.276923 
L 628.758621 412.061538 
L 632.606897 341.169231 
L 636.455172 412.061538 
L 640.303448 412.061538 
L 640.303448 412.061538 
" style="fill:none;stroke:#ff0000;stroke-dasharray:1.000000,3.000000;stroke-dashoffset:0.0;"/>
   </g>
   <g id="patch_3">
    <path d="M 648 518.4 
L 648 57.6 
" style="fill:none;stroke:#000000;stroke-linecap:square;stroke-linejoin:miter;"/>
   </g>
   <g id="patch_4">
    <path d="M 90 518.4 
L 90 57.6 
" style="fill:none;stroke:#000000;stroke-linecap:square;stroke-linejoin:miter;"/>
   </g>
   <g id="patch_5">
    <path d="M 90 518.4 
L 648 518.4 
" style="fill:none;stroke:#000000;stroke-linecap:square;stroke-linejoin:miter;"/>
   </g>
   <g id="patch_6">
    <path d="M 90 57.6 
L 648 57.6 
" style="fill:none;stroke:#000000;stroke-linecap:square;stroke-linejoin:miter;"/>
   </g>
   <g id="matplotlib.axis_1">
    <g id="xtick_1">
     <g id="line2d_3">
      <defs>
       <path d="M 0 0 
L 0 -4 
" id="m5f6ce4f75f" style="stroke:#000000;stroke-width:0.5;"/>
      </defs>
      <g>
       <use style="stroke:#000000;stroke-width:0.5;" x="278.565517241" xlink:href="#m5f6ce4f75f" y="518.4"/>
      </g>
     </g>
     <g id="line2d_4">
      <defs>
       <path d="M 0 0 
L 0 4 
" id="mf2d68e56e8" style="stroke:#000000;stroke-width:0.5;"/>
      </defs>
      <g>
       <use style="stroke:#000000;stroke-width:0.5;" x="278.565517241" xlink:href="#mf2d68e56e8" y="57.6"/>
      </g>
     </g>
     <g id="text_1">
      <!-- 12/12/12 -->
      <defs>
       <path d="M 12.40625 8.296875 
L 28.515625 8.296875 
L 28.515625 63.921875 
L 10.984375 60.40625 
L 10.984375 69.390625 
L 28.421875 72.90625 
L 38.28125 72.90625 
L 38.28125 8.296875 
L 54.390625 8.296875 
L 54.390625 0 
L 12.40625 0 
z
" id="BitstreamVeraSans-Roman-31"/>
       <path d="M 19.1875 8.296875 
L 53.609375 8.296875 
L 53.609375 0 
L 7.328125 0 
L 7.328125 8.296875 
Q 12.9375 14.109375 22.625 23.890625 
Q 32.328125 33.6875 34.8125 36.53125 
Q 39.546875 41.84375 41.421875 45.53125 
Q 43.3125 49.21875 43.3125 52.78125 
Q 43.3125 58.59375 39.234375 62.25 
Q 35.15625 65.921875 28.609375 65.921875 
Q 23.96875 65.921875 18.8125 64.3125 
Q 13.671875 62.703125 7.8125 59.421875 
L 7.8125 69.390625 
Q 13.765625 71.78125 18.9375 73 
Q 24.125 74.21875 28.421875 74.21875 
Q 39.75 74.21875 46.484375 68.546875 
Q 53.21875 62.890625 53.21875 53.421875 
Q 53.21875 48.921875 51.53125 44.890625 
Q 49.859375 40.875 45.40625 35.40625 
Q 44.1875 33.984375 37.640625 27.21875 
Q 31.109375 20.453125 19.1875 8.296875 
" id="BitstreamVeraSans-Roman-32"/>
       <path d="M 25.390625 72.90625 
L 33.6875 72.90625 
L 8.296875 -9.28125 
L 0 -9.28125 
z
" id="BitstreamVeraSans-Roman-2f"/>
      </defs>
      <g transform="translate(261.852164585 566.957007991)rotate(-45.0)scale(0.12 -0.12)">
       <use xlink:href="#BitstreamVeraSans-Roman-31"/>
       <use x="63.623046875" xlink:href="#BitstreamVeraSans-Roman-32"/>
       <use x="127.24609375" xlink:href="#BitstreamVeraSans-Roman-2f"/>
       <use x="160.9375" xlink:href="#BitstreamVeraSans-Roman-31"/>
       <use x="224.560546875" xlink:href="#BitstreamVeraSans-Roman-32"/>
       <use x="288.18359375" xlink:href="#BitstreamVeraSans-Roman-2f"/>
       <use x="321.875" xlink:href="#BitstreamVeraSans-Roman-31"/>
       <use x="385.498046875" xlink:href="#BitstreamVeraSans-Roman-32"/>
      </g>
     </g>
    </g>
    <g id="text_2">
     <!-- Game Number$_5$ -->
     <defs>
      <path d="M 8.6875 11.375 
Q 9.71875 8.453125 11.84375 6.046875 
Q 13.96875 3.65625 16.875 2.3125 
Q 19.78125 0.984375 22.90625 0.984375 
Q 30.125 0.984375 32.859375 6.59375 
Q 35.59375 12.203125 35.59375 20.21875 
Q 35.59375 23.6875 35.46875 26.046875 
Q 35.359375 28.421875 34.8125 30.609375 
Q 33.890625 34.125 31.5625 36.765625 
Q 29.25 39.40625 25.875 39.40625 
Q 22.515625 39.40625 20.09375 38.375 
Q 17.671875 37.359375 16.15625 35.984375 
Q 14.65625 34.625 13.484375 33.109375 
Q 12.3125 31.59375 12.015625 31.5 
L 10.890625 31.5 
Q 10.640625 31.5 10.265625 31.8125 
Q 9.90625 32.125 9.90625 32.421875 
L 9.90625 65.828125 
Q 9.90625 66.0625 10.21875 66.328125 
Q 10.546875 66.609375 10.890625 66.609375 
L 11.1875 66.609375 
Q 17.921875 63.375 25.484375 63.375 
Q 32.90625 63.375 39.796875 66.609375 
L 40.09375 66.609375 
Q 40.4375 66.609375 40.71875 66.359375 
Q 41.015625 66.109375 41.015625 65.828125 
L 41.015625 64.890625 
Q 41.015625 64.40625 40.828125 64.40625 
Q 37.40625 59.859375 32.25 57.3125 
Q 27.09375 54.78125 21.578125 54.78125 
Q 17.578125 54.78125 13.375 55.90625 
L 13.375 37.015625 
Q 16.703125 39.703125 19.3125 40.84375 
Q 21.921875 42 25.984375 42 
Q 31.5 42 35.859375 38.8125 
Q 40.234375 35.640625 42.578125 30.53125 
Q 44.921875 25.4375 44.921875 20.125 
Q 44.921875 14.109375 41.96875 8.984375 
Q 39.015625 3.859375 33.9375 0.828125 
Q 28.859375 -2.203125 22.90625 -2.203125 
Q 17.96875 -2.203125 13.84375 0.328125 
Q 9.71875 2.875 7.34375 7.171875 
Q 4.984375 11.46875 4.984375 16.3125 
Q 4.984375 18.5625 6.4375 19.96875 
Q 7.90625 21.390625 10.109375 21.390625 
Q 12.3125 21.390625 13.796875 19.9375 
Q 15.28125 18.5 15.28125 16.3125 
Q 15.28125 14.15625 13.796875 12.671875 
Q 12.3125 11.1875 10.109375 11.1875 
Q 9.765625 11.1875 9.328125 11.25 
Q 8.890625 11.328125 8.6875 11.375 
" id="Cmr10-35"/>
      <path d="M 52 44.1875 
Q 55.375 50.25 60.0625 53.125 
Q 64.75 56 71.09375 56 
Q 79.640625 56 84.28125 50.015625 
Q 88.921875 44.046875 88.921875 33.015625 
L 88.921875 0 
L 79.890625 0 
L 79.890625 32.71875 
Q 79.890625 40.578125 77.09375 44.375 
Q 74.3125 48.1875 68.609375 48.1875 
Q 61.625 48.1875 57.5625 43.546875 
Q 53.515625 38.921875 53.515625 30.90625 
L 53.515625 0 
L 44.484375 0 
L 44.484375 32.71875 
Q 44.484375 40.625 41.703125 44.40625 
Q 38.921875 48.1875 33.109375 48.1875 
Q 26.21875 48.1875 22.15625 43.53125 
Q 18.109375 38.875 18.109375 30.90625 
L 18.109375 0 
L 9.078125 0 
L 9.078125 54.6875 
L 18.109375 54.6875 
L 18.109375 46.1875 
Q 21.1875 51.21875 25.484375 53.609375 
Q 29.78125 56 35.6875 56 
Q 41.65625 56 45.828125 52.96875 
Q 50 49.953125 52 44.1875 
" id="BitstreamVeraSans-Roman-6d"/>
      <path d="M 34.28125 27.484375 
Q 23.390625 27.484375 19.1875 25 
Q 14.984375 22.515625 14.984375 16.5 
Q 14.984375 11.71875 18.140625 8.90625 
Q 21.296875 6.109375 26.703125 6.109375 
Q 34.1875 6.109375 38.703125 11.40625 
Q 43.21875 16.703125 43.21875 25.484375 
L 43.21875 27.484375 
z
M 52.203125 31.203125 
L 52.203125 0 
L 43.21875 0 
L 43.21875 8.296875 
Q 40.140625 3.328125 35.546875 0.953125 
Q 30.953125 -1.421875 24.3125 -1.421875 
Q 15.921875 -1.421875 10.953125 3.296875 
Q 6 8.015625 6 15.921875 
Q 6 25.140625 12.171875 29.828125 
Q 18.359375 34.515625 30.609375 34.515625 
L 43.21875 34.515625 
L 43.21875 35.40625 
Q 43.21875 41.609375 39.140625 45 
Q 35.0625 48.390625 27.6875 48.390625 
Q 23 48.390625 18.546875 47.265625 
Q 14.109375 46.140625 10.015625 43.890625 
L 10.015625 52.203125 
Q 14.9375 54.109375 19.578125 55.046875 
Q 24.21875 56 28.609375 56 
Q 40.484375 56 46.34375 49.84375 
Q 52.203125 43.703125 52.203125 31.203125 
" id="BitstreamVeraSans-Roman-61"/>
      <path id="BitstreamVeraSans-Roman-20"/>
      <path d="M 8.5 21.578125 
L 8.5 54.6875 
L 17.484375 54.6875 
L 17.484375 21.921875 
Q 17.484375 14.15625 20.5 10.265625 
Q 23.53125 6.390625 29.59375 6.390625 
Q 36.859375 6.390625 41.078125 11.03125 
Q 45.3125 15.671875 45.3125 23.6875 
L 45.3125 54.6875 
L 54.296875 54.6875 
L 54.296875 0 
L 45.3125 0 
L 45.3125 8.40625 
Q 42.046875 3.421875 37.71875 1 
Q 33.40625 -1.421875 27.6875 -1.421875 
Q 18.265625 -1.421875 13.375 4.4375 
Q 8.5 10.296875 8.5 21.578125 
" id="BitstreamVeraSans-Roman-75"/>
      <path d="M 59.515625 10.40625 
L 59.515625 29.984375 
L 43.40625 29.984375 
L 43.40625 38.09375 
L 69.28125 38.09375 
L 69.28125 6.78125 
Q 63.578125 2.734375 56.6875 0.65625 
Q 49.8125 -1.421875 42 -1.421875 
Q 24.90625 -1.421875 15.25 8.5625 
Q 5.609375 18.5625 5.609375 36.375 
Q 5.609375 54.25 15.25 64.234375 
Q 24.90625 74.21875 42 74.21875 
Q 49.125 74.21875 55.546875 72.453125 
Q 61.96875 70.703125 67.390625 67.28125 
L 67.390625 56.78125 
Q 61.921875 61.421875 55.765625 63.765625 
Q 49.609375 66.109375 42.828125 66.109375 
Q 29.4375 66.109375 22.71875 58.640625 
Q 16.015625 51.171875 16.015625 36.375 
Q 16.015625 21.625 22.71875 14.15625 
Q 29.4375 6.6875 42.828125 6.6875 
Q 48.046875 6.6875 52.140625 7.59375 
Q 56.25 8.5 59.515625 10.40625 
" id="BitstreamVeraSans-Roman-47"/>
      <path d="M 41.109375 46.296875 
Q 39.59375 47.171875 37.8125 47.578125 
Q 36.03125 48 33.890625 48 
Q 26.265625 48 22.1875 43.046875 
Q 18.109375 38.09375 18.109375 28.8125 
L 18.109375 0 
L 9.078125 0 
L 9.078125 54.6875 
L 18.109375 54.6875 
L 18.109375 46.1875 
Q 20.953125 51.171875 25.484375 53.578125 
Q 30.03125 56 36.53125 56 
Q 37.453125 56 38.578125 55.875 
Q 39.703125 55.765625 41.0625 55.515625 
z
" id="BitstreamVeraSans-Roman-72"/>
      <path d="M 56.203125 29.59375 
L 56.203125 25.203125 
L 14.890625 25.203125 
Q 15.484375 15.921875 20.484375 11.0625 
Q 25.484375 6.203125 34.421875 6.203125 
Q 39.59375 6.203125 44.453125 7.46875 
Q 49.3125 8.734375 54.109375 11.28125 
L 54.109375 2.78125 
Q 49.265625 0.734375 44.1875 -0.34375 
Q 39.109375 -1.421875 33.890625 -1.421875 
Q 20.796875 -1.421875 13.15625 6.1875 
Q 5.515625 13.8125 5.515625 26.8125 
Q 5.515625 40.234375 12.765625 48.109375 
Q 20.015625 56 32.328125 56 
Q 43.359375 56 49.78125 48.890625 
Q 56.203125 41.796875 56.203125 29.59375 
M 47.21875 32.234375 
Q 47.125 39.59375 43.09375 43.984375 
Q 39.0625 48.390625 32.421875 48.390625 
Q 24.90625 48.390625 20.390625 44.140625 
Q 15.875 39.890625 15.1875 32.171875 
z
" id="BitstreamVeraSans-Roman-65"/>
      <path d="M 9.8125 72.90625 
L 23.09375 72.90625 
L 55.421875 11.921875 
L 55.421875 72.90625 
L 64.984375 72.90625 
L 64.984375 0 
L 51.703125 0 
L 19.390625 60.984375 
L 19.390625 0 
L 9.8125 0 
z
" id="BitstreamVeraSans-Roman-4e"/>
      <path d="M 48.6875 27.296875 
Q 48.6875 37.203125 44.609375 42.84375 
Q 40.53125 48.484375 33.40625 48.484375 
Q 26.265625 48.484375 22.1875 42.84375 
Q 18.109375 37.203125 18.109375 27.296875 
Q 18.109375 17.390625 22.1875 11.75 
Q 26.265625 6.109375 33.40625 6.109375 
Q 40.53125 6.109375 44.609375 11.75 
Q 48.6875 17.390625 48.6875 27.296875 
M 18.109375 46.390625 
Q 20.953125 51.265625 25.265625 53.625 
Q 29.59375 56 35.59375 56 
Q 45.5625 56 51.78125 48.09375 
Q 58.015625 40.1875 58.015625 27.296875 
Q 58.015625 14.40625 51.78125 6.484375 
Q 45.5625 -1.421875 35.59375 -1.421875 
Q 29.59375 -1.421875 25.265625 0.953125 
Q 20.953125 3.328125 18.109375 8.203125 
L 18.109375 0 
L 9.078125 0 
L 9.078125 75.984375 
L 18.109375 75.984375 
z
" id="BitstreamVeraSans-Roman-62"/>
     </defs>
     <g transform="translate(322.32 582.839806352)scale(0.12 -0.12)">
      <use transform="translate(0.0 0.015625)" xlink:href="#BitstreamVeraSans-Roman-47"/>
      <use transform="translate(77.490234375 0.015625)" xlink:href="#BitstreamVeraSans-Roman-61"/>
      <use transform="translate(138.76953125 0.015625)" xlink:href="#BitstreamVeraSans-Roman-6d"/>
      <use transform="translate(236.181640625 0.015625)" xlink:href="#BitstreamVeraSans-Roman-65"/>
      <use transform="translate(297.705078125 0.015625)" xlink:href="#BitstreamVeraSans-Roman-20"/>
      <use transform="translate(329.4921875 0.015625)" xlink:href="#BitstreamVeraSans-Roman-4e"/>
      <use transform="translate(404.296875 0.015625)" xlink:href="#BitstreamVeraSans-Roman-75"/>
      <use transform="translate(467.67578125 0.015625)" xlink:href="#BitstreamVeraSans-Roman-6d"/>
      <use transform="translate(565.087890625 0.015625)" xlink:href="#BitstreamVeraSans-Roman-62"/>
      <use transform="translate(628.564453125 0.015625)" xlink:href="#BitstreamVeraSans-Roman-65"/>
      <use transform="translate(690.087890625 0.015625)" xlink:href="#BitstreamVeraSans-Roman-72"/>
      <use transform="translate(735.6653125 -16.990624999999994)scale(0.7)" xlink:href="#Cmr10-35"/>
     </g>
    </g>
   </g>
   <g id="matplotlib.axis_2">
    <g id="ytick_1">
     <g id="line2d_5">
      <defs>
       <path d="M 0 0 
L 4 0 
" id="mf0718ea516" style="stroke:#000000;stroke-width:0.5;"/>
      </defs>
      <g>
       <use style="stroke:#000000;stroke-width:0.5;" x="90.0" xlink:href="#mf0718ea516" y="270.276923077"/>
      </g>
     </g>
     <g id="line2d_6">
      <defs>
       <path d="M 0 0 
L -4 0 
" id="m44e952e80b" style="stroke:#000000;stroke-width:0.5;"/>
      </defs>
      <g>
       <use style="stroke:#000000;stroke-width:0.5;" x="648.0" xlink:href="#m44e952e80b" y="270.276923077"/>
      </g>
     </g>
     <g id="text_3">
      <!-- Three Goals -->
      <defs>
       <path d="M 54.890625 33.015625 
L 54.890625 0 
L 45.90625 0 
L 45.90625 32.71875 
Q 45.90625 40.484375 42.875 44.328125 
Q 39.84375 48.1875 33.796875 48.1875 
Q 26.515625 48.1875 22.3125 43.546875 
Q 18.109375 38.921875 18.109375 30.90625 
L 18.109375 0 
L 9.078125 0 
L 9.078125 75.984375 
L 18.109375 75.984375 
L 18.109375 46.1875 
Q 21.34375 51.125 25.703125 53.5625 
Q 30.078125 56 35.796875 56 
Q 45.21875 56 50.046875 50.171875 
Q 54.890625 44.34375 54.890625 33.015625 
" id="BitstreamVeraSans-Roman-68"/>
       <path d="M 30.609375 48.390625 
Q 23.390625 48.390625 19.1875 42.75 
Q 14.984375 37.109375 14.984375 27.296875 
Q 14.984375 17.484375 19.15625 11.84375 
Q 23.34375 6.203125 30.609375 6.203125 
Q 37.796875 6.203125 41.984375 11.859375 
Q 46.1875 17.53125 46.1875 27.296875 
Q 46.1875 37.015625 41.984375 42.703125 
Q 37.796875 48.390625 30.609375 48.390625 
M 30.609375 56 
Q 42.328125 56 49.015625 48.375 
Q 55.71875 40.765625 55.71875 27.296875 
Q 55.71875 13.875 49.015625 6.21875 
Q 42.328125 -1.421875 30.609375 -1.421875 
Q 18.84375 -1.421875 12.171875 6.21875 
Q 5.515625 13.875 5.515625 27.296875 
Q 5.515625 40.765625 12.171875 48.375 
Q 18.84375 56 30.609375 56 
" id="BitstreamVeraSans-Roman-6f"/>
       <path d="M 9.421875 75.984375 
L 18.40625 75.984375 
L 18.40625 0 
L 9.421875 0 
z
" id="BitstreamVeraSans-Roman-6c"/>
       <path d="M -0.296875 72.90625 
L 61.375 72.90625 
L 61.375 64.59375 
L 35.5 64.59375 
L 35.5 0 
L 25.59375 0 
L 25.59375 64.59375 
L -0.296875 64.59375 
z
" id="BitstreamVeraSans-Roman-54"/>
       <path d="M 44.28125 53.078125 
L 44.28125 44.578125 
Q 40.484375 46.53125 36.375 47.5 
Q 32.28125 48.484375 27.875 48.484375 
Q 21.1875 48.484375 17.84375 46.4375 
Q 14.5 44.390625 14.5 40.28125 
Q 14.5 37.15625 16.890625 35.375 
Q 19.28125 33.59375 26.515625 31.984375 
L 29.59375 31.296875 
Q 39.15625 29.25 43.1875 25.515625 
Q 47.21875 21.78125 47.21875 15.09375 
Q 47.21875 7.46875 41.1875 3.015625 
Q 35.15625 -1.421875 24.609375 -1.421875 
Q 20.21875 -1.421875 15.453125 -0.5625 
Q 10.6875 0.296875 5.421875 2 
L 5.421875 11.28125 
Q 10.40625 8.6875 15.234375 7.390625 
Q 20.0625 6.109375 24.8125 6.109375 
Q 31.15625 6.109375 34.5625 8.28125 
Q 37.984375 10.453125 37.984375 14.40625 
Q 37.984375 18.0625 35.515625 20.015625 
Q 33.0625 21.96875 24.703125 23.78125 
L 21.578125 24.515625 
Q 13.234375 26.265625 9.515625 29.90625 
Q 5.8125 33.546875 5.8125 39.890625 
Q 5.8125 47.609375 11.28125 51.796875 
Q 16.75 56 26.8125 56 
Q 31.78125 56 36.171875 55.265625 
Q 40.578125 54.546875 44.28125 53.078125 
" id="BitstreamVeraSans-Roman-73"/>
      </defs>
      <g transform="translate(83.504375 306.289110577)rotate(-90.0)scale(0.12 -0.12)">
       <use xlink:href="#BitstreamVeraSans-Roman-54"/>
       <use x="61.083984375" xlink:href="#BitstreamVeraSans-Roman-68"/>
       <use x="124.462890625" xlink:href="#BitstreamVeraSans-Roman-72"/>
       <use x="165.544921875" xlink:href="#BitstreamVeraSans-Roman-65"/>
       <use x="227.068359375" xlink:href="#BitstreamVeraSans-Roman-65"/>
       <use x="288.591796875" xlink:href="#BitstreamVeraSans-Roman-20"/>
       <use x="320.37890625" xlink:href="#BitstreamVeraSans-Roman-47"/>
       <use x="397.869140625" xlink:href="#BitstreamVeraSans-Roman-6f"/>
       <use x="459.05078125" xlink:href="#BitstreamVeraSans-Roman-61"/>
       <use x="520.330078125" xlink:href="#BitstreamVeraSans-Roman-6c"/>
       <use x="548.11328125" xlink:href="#BitstreamVeraSans-Roman-73"/>
      </g>
     </g>
    </g>
    <g id="text_4">
     <!-- Goals Scored -->
     <defs>
      <path d="M 53.515625 70.515625 
L 53.515625 60.890625 
Q 47.90625 63.578125 42.921875 64.890625 
Q 37.9375 66.21875 33.296875 66.21875 
Q 25.25 66.21875 20.875 63.09375 
Q 16.5 59.96875 16.5 54.203125 
Q 16.5 49.359375 19.40625 46.890625 
Q 22.3125 44.4375 30.421875 42.921875 
L 36.375 41.703125 
Q 47.40625 39.59375 52.65625 34.296875 
Q 57.90625 29 57.90625 20.125 
Q 57.90625 9.515625 50.796875 4.046875 
Q 43.703125 -1.421875 29.984375 -1.421875 
Q 24.8125 -1.421875 18.96875 -0.25 
Q 13.140625 0.921875 6.890625 3.21875 
L 6.890625 13.375 
Q 12.890625 10.015625 18.65625 8.296875 
Q 24.421875 6.59375 29.984375 6.59375 
Q 38.421875 6.59375 43.015625 9.90625 
Q 47.609375 13.234375 47.609375 19.390625 
Q 47.609375 24.75 44.3125 27.78125 
Q 41.015625 30.8125 33.5 32.328125 
L 27.484375 33.5 
Q 16.453125 35.6875 11.515625 40.375 
Q 6.59375 45.0625 6.59375 53.421875 
Q 6.59375 63.09375 13.40625 68.65625 
Q 20.21875 74.21875 32.171875 74.21875 
Q 37.3125 74.21875 42.625 73.28125 
Q 47.953125 72.359375 53.515625 70.515625 
" id="BitstreamVeraSans-Roman-53"/>
      <path d="M 45.40625 46.390625 
L 45.40625 75.984375 
L 54.390625 75.984375 
L 54.390625 0 
L 45.40625 0 
L 45.40625 8.203125 
Q 42.578125 3.328125 38.25 0.953125 
Q 33.9375 -1.421875 27.875 -1.421875 
Q 17.96875 -1.421875 11.734375 6.484375 
Q 5.515625 14.40625 5.515625 27.296875 
Q 5.515625 40.1875 11.734375 48.09375 
Q 17.96875 56 27.875 56 
Q 33.9375 56 38.25 53.625 
Q 42.578125 51.265625 45.40625 46.390625 
M 14.796875 27.296875 
Q 14.796875 17.390625 18.875 11.75 
Q 22.953125 6.109375 30.078125 6.109375 
Q 37.203125 6.109375 41.296875 11.75 
Q 45.40625 17.390625 45.40625 27.296875 
Q 45.40625 37.203125 41.296875 42.84375 
Q 37.203125 48.484375 30.078125 48.484375 
Q 22.953125 48.484375 18.875 42.84375 
Q 14.796875 37.203125 14.796875 27.296875 
" id="BitstreamVeraSans-Roman-64"/>
      <path d="M 48.78125 52.59375 
L 48.78125 44.1875 
Q 44.96875 46.296875 41.140625 47.34375 
Q 37.3125 48.390625 33.40625 48.390625 
Q 24.65625 48.390625 19.8125 42.84375 
Q 14.984375 37.3125 14.984375 27.296875 
Q 14.984375 17.28125 19.8125 11.734375 
Q 24.65625 6.203125 33.40625 6.203125 
Q 37.3125 6.203125 41.140625 7.25 
Q 44.96875 8.296875 48.78125 10.40625 
L 48.78125 2.09375 
Q 45.015625 0.34375 40.984375 -0.53125 
Q 36.96875 -1.421875 32.421875 -1.421875 
Q 20.0625 -1.421875 12.78125 6.34375 
Q 5.515625 14.109375 5.515625 27.296875 
Q 5.515625 40.671875 12.859375 48.328125 
Q 20.21875 56 33.015625 56 
Q 37.15625 56 41.109375 55.140625 
Q 45.0625 54.296875 48.78125 52.59375 
" id="BitstreamVeraSans-Roman-63"/>
     </defs>
     <g transform="translate(66.890625 327.4415625)rotate(-90.0)scale(0.12 -0.12)">
      <use xlink:href="#BitstreamVeraSans-Roman-47"/>
      <use x="77.490234375" xlink:href="#BitstreamVeraSans-Roman-6f"/>
      <use x="138.671875" xlink:href="#BitstreamVeraSans-Roman-61"/>
      <use x="199.951171875" xlink:href="#BitstreamVeraSans-Roman-6c"/>
      <use x="227.734375" xlink:href="#BitstreamVeraSans-Roman-73"/>
      <use x="279.833984375" xlink:href="#BitstreamVeraSans-Roman-20"/>
      <use x="311.62109375" xlink:href="#BitstreamVeraSans-Roman-53"/>
      <use x="375.09765625" xlink:href="#BitstreamVeraSans-Roman-63"/>
      <use x="430.078125" xlink:href="#BitstreamVeraSans-Roman-6f"/>
      <use x="491.259765625" xlink:href="#BitstreamVeraSans-Roman-72"/>
      <use x="532.341796875" xlink:href="#BitstreamVeraSans-Roman-65"/>
      <use x="593.865234375" xlink:href="#BitstreamVeraSans-Roman-64"/>
     </g>
    </g>
   </g>
   <g id="text_5">
    <!-- Our$^3$ Custom Text -->
    <defs>
     <path d="M 18.3125 70.21875 
L 18.3125 54.6875 
L 36.8125 54.6875 
L 36.8125 47.703125 
L 18.3125 47.703125 
L 18.3125 18.015625 
Q 18.3125 11.328125 20.140625 9.421875 
Q 21.96875 7.515625 27.59375 7.515625 
L 36.8125 7.515625 
L 36.8125 0 
L 27.59375 0 
Q 17.1875 0 13.234375 3.875 
Q 9.28125 7.765625 9.28125 18.015625 
L 9.28125 47.703125 
L 2.6875 47.703125 
L 2.6875 54.6875 
L 9.28125 54.6875 
L 9.28125 70.21875 
z
" id="BitstreamVeraSans-Roman-74"/>
     <path d="M 9.515625 7.71875 
Q 11.859375 4.296875 15.8125 2.640625 
Q 19.78125 0.984375 24.3125 0.984375 
Q 30.125 0.984375 32.5625 5.9375 
Q 35.015625 10.890625 35.015625 17.1875 
Q 35.015625 20.015625 34.5 22.84375 
Q 33.984375 25.6875 32.765625 28.125 
Q 31.546875 30.5625 29.421875 32.03125 
Q 27.296875 33.5 24.21875 33.5 
L 17.578125 33.5 
Q 16.703125 33.5 16.703125 34.421875 
L 16.703125 35.296875 
Q 16.703125 36.078125 17.578125 36.078125 
L 23.09375 36.53125 
Q 26.609375 36.53125 28.921875 39.15625 
Q 31.25 41.796875 32.328125 45.578125 
Q 33.40625 49.359375 33.40625 52.78125 
Q 33.40625 57.5625 31.15625 60.640625 
Q 28.90625 63.71875 24.3125 63.71875 
Q 20.515625 63.71875 17.046875 62.28125 
Q 13.578125 60.84375 11.53125 57.90625 
Q 11.71875 57.953125 11.859375 57.984375 
Q 12.015625 58.015625 12.203125 58.015625 
Q 14.453125 58.015625 15.96875 56.453125 
Q 17.484375 54.890625 17.484375 52.6875 
Q 17.484375 50.53125 15.96875 48.96875 
Q 14.453125 47.40625 12.203125 47.40625 
Q 10.015625 47.40625 8.453125 48.96875 
Q 6.890625 50.53125 6.890625 52.6875 
Q 6.890625 56.984375 9.46875 60.15625 
Q 12.0625 63.328125 16.140625 64.96875 
Q 20.21875 66.609375 24.3125 66.609375 
Q 27.34375 66.609375 30.703125 65.703125 
Q 34.078125 64.796875 36.8125 63.109375 
Q 39.546875 61.421875 41.28125 58.78125 
Q 43.015625 56.15625 43.015625 52.78125 
Q 43.015625 48.578125 41.140625 45.015625 
Q 39.265625 41.453125 35.984375 38.859375 
Q 32.71875 36.28125 28.8125 35.015625 
Q 33.15625 34.1875 37.0625 31.734375 
Q 40.96875 29.296875 43.328125 25.484375 
Q 45.703125 21.6875 45.703125 17.28125 
Q 45.703125 11.765625 42.671875 7.296875 
Q 39.65625 2.828125 34.71875 0.3125 
Q 29.78125 -2.203125 24.3125 -2.203125 
Q 19.625 -2.203125 14.90625 -0.40625 
Q 10.203125 1.375 7.203125 4.9375 
Q 4.203125 8.5 4.203125 13.484375 
Q 4.203125 15.96875 5.859375 17.625 
Q 7.515625 19.28125 10.015625 19.28125 
Q 11.625 19.28125 12.96875 18.53125 
Q 14.3125 17.78125 15.0625 16.40625 
Q 15.828125 15.046875 15.828125 13.484375 
Q 15.828125 11.03125 14.109375 9.375 
Q 12.40625 7.71875 10.015625 7.71875 
z
" id="Cmr10-33"/>
     <path d="M 39.40625 66.21875 
Q 28.65625 66.21875 22.328125 58.203125 
Q 16.015625 50.203125 16.015625 36.375 
Q 16.015625 22.609375 22.328125 14.59375 
Q 28.65625 6.59375 39.40625 6.59375 
Q 50.140625 6.59375 56.421875 14.59375 
Q 62.703125 22.609375 62.703125 36.375 
Q 62.703125 50.203125 56.421875 58.203125 
Q 50.140625 66.21875 39.40625 66.21875 
M 39.40625 74.21875 
Q 54.734375 74.21875 63.90625 63.9375 
Q 73.09375 53.65625 73.09375 36.375 
Q 73.09375 19.140625 63.90625 8.859375 
Q 54.734375 -1.421875 39.40625 -1.421875 
Q 24.03125 -1.421875 14.8125 8.828125 
Q 5.609375 19.09375 5.609375 36.375 
Q 5.609375 53.65625 14.8125 63.9375 
Q 24.03125 74.21875 39.40625 74.21875 
" id="BitstreamVeraSans-Roman-4f"/>
     <path d="M 54.890625 54.6875 
L 35.109375 28.078125 
L 55.90625 0 
L 45.3125 0 
L 29.390625 21.484375 
L 13.484375 0 
L 2.875 0 
L 24.125 28.609375 
L 4.6875 54.6875 
L 15.28125 54.6875 
L 29.78125 35.203125 
L 44.28125 54.6875 
z
" id="BitstreamVeraSans-Roman-78"/>
     <path d="M 64.40625 67.28125 
L 64.40625 56.890625 
Q 59.421875 61.53125 53.78125 63.8125 
Q 48.140625 66.109375 41.796875 66.109375 
Q 29.296875 66.109375 22.65625 58.46875 
Q 16.015625 50.828125 16.015625 36.375 
Q 16.015625 21.96875 22.65625 14.328125 
Q 29.296875 6.6875 41.796875 6.6875 
Q 48.140625 6.6875 53.78125 8.984375 
Q 59.421875 11.28125 64.40625 15.921875 
L 64.40625 5.609375 
Q 59.234375 2.09375 53.4375 0.328125 
Q 47.65625 -1.421875 41.21875 -1.421875 
Q 24.65625 -1.421875 15.125 8.703125 
Q 5.609375 18.84375 5.609375 36.375 
Q 5.609375 53.953125 15.125 64.078125 
Q 24.65625 74.21875 41.21875 74.21875 
Q 47.75 74.21875 53.53125 72.484375 
Q 59.328125 70.75 64.40625 67.28125 
" id="BitstreamVeraSans-Roman-43"/>
    </defs>
    <g style="fill:#0000ff;" transform="translate(286.71211845 248.346173349)rotate(-45.0)scale(0.08 -0.08)">
     <use transform="translate(0.0 0.109375)" xlink:href="#BitstreamVeraSans-Roman-4f"/>
     <use transform="translate(78.7109375 0.109375)" xlink:href="#BitstreamVeraSans-Roman-75"/>
     <use transform="translate(142.08984375 0.109375)" xlink:href="#BitstreamVeraSans-Roman-72"/>
     <use transform="translate(187.667265625 38.3734375)scale(0.7)" xlink:href="#Cmr10-33"/>
     <use transform="translate(229.044609375 0.109375)" xlink:href="#BitstreamVeraSans-Roman-20"/>
     <use transform="translate(260.83171875 0.109375)" xlink:href="#BitstreamVeraSans-Roman-43"/>
     <use transform="translate(330.6559375 0.109375)" xlink:href="#BitstreamVeraSans-Roman-75"/>
     <use transform="translate(394.03484375 0.109375)" xlink:href="#BitstreamVeraSans-Roman-73"/>
     <use transform="translate(446.134453125 0.109375)" xlink:href="#BitstreamVeraSans-Roman-74"/>
     <use transform="translate(485.3434375 0.109375)" xlink:href="#BitstreamVeraSans-Roman-6f"/>
     <use transform="translate(546.5250781249999 0.109375)" xlink:href="#BitstreamVeraSans-Roman-6d"/>
     <use transform="translate(643.9371874999999 0.109375)" xlink:href="#BitstreamVeraSans-Roman-20"/>
     <use transform="translate(675.7242968749999 0.109375)" xlink:href="#BitstreamVeraSans-Roman-54"/>
     <use transform="translate(736.8082812499999 0.109375)" xlink:href="#BitstreamVeraSans-Roman-65"/>
     <use transform="translate(798.3317187499999 0.109375)" xlink:href="#BitstreamVeraSans-Roman-78"/>
     <use transform="translate(857.5114062499999 0.109375)" xlink:href="#BitstreamVeraSans-Roman-74"/>
    </g>
   </g>
   <g id="patch_7">
    <path d="M 381.555225 132.28111 
Q 483.097691 266.779285 584.640157 401.277461 
L 587.832521 398.867313 
Q 589.054191 405.464426 590.275862 412.061538 
Q 584.265646 409.079648 578.255429 406.097757 
L 581.447793 403.687609 
Q 479.905327 269.189433 378.362861 134.691258 
L 381.555225 132.28111 
z
" style="fill:#ff0000;stroke:#000000;stroke-linecap:round;"/>
   </g>
   <g id="text_6">
    <!-- Text 2 -->
    <g transform="translate(340.137931034 128.492307692)scale(0.12 -0.12)">
     <use xlink:href="#BitstreamVeraSans-Roman-54"/>
     <use x="60.818359375" xlink:href="#BitstreamVeraSans-Roman-65"/>
     <use x="122.326171875" xlink:href="#BitstreamVeraSans-Roman-78"/>
     <use x="181.505859375" xlink:href="#BitstreamVeraSans-Roman-74"/>
     <use x="220.71484375" xlink:href="#BitstreamVeraSans-Roman-20"/>
     <use x="252.501953125" xlink:href="#BitstreamVeraSans-Roman-32"/>
    </g>
   </g>
   <g id="text_7">
    <!-- Our first plot $\frac{1}{2}$ -->
    <defs>
     <path d="M 4.984375 0 
L 4.984375 2.6875 
Q 4.984375 2.9375 5.171875 3.21875 
L 20.703125 20.40625 
Q 24.21875 24.21875 26.40625 26.796875 
Q 28.609375 29.390625 30.75 32.765625 
Q 32.90625 36.140625 34.15625 39.625 
Q 35.40625 43.109375 35.40625 47.015625 
Q 35.40625 51.125 33.890625 54.859375 
Q 32.375 58.59375 29.375 60.84375 
Q 26.375 63.09375 22.125 63.09375 
Q 17.78125 63.09375 14.3125 60.46875 
Q 10.84375 57.859375 9.421875 53.71875 
Q 9.8125 53.8125 10.5 53.8125 
Q 12.75 53.8125 14.328125 52.296875 
Q 15.921875 50.78125 15.921875 48.390625 
Q 15.921875 46.09375 14.328125 44.5 
Q 12.75 42.921875 10.5 42.921875 
Q 8.15625 42.921875 6.5625 44.546875 
Q 4.984375 46.1875 4.984375 48.390625 
Q 4.984375 52.15625 6.390625 55.4375 
Q 7.8125 58.734375 10.46875 61.296875 
Q 13.140625 63.875 16.484375 65.234375 
Q 19.828125 66.609375 23.578125 66.609375 
Q 29.296875 66.609375 34.21875 64.1875 
Q 39.15625 61.765625 42.03125 57.34375 
Q 44.921875 52.9375 44.921875 47.015625 
Q 44.921875 42.671875 43.015625 38.765625 
Q 41.109375 34.859375 38.125 31.65625 
Q 35.15625 28.46875 30.515625 24.40625 
Q 25.875 20.359375 24.421875 19 
L 13.09375 8.109375 
L 22.703125 8.109375 
Q 29.78125 8.109375 34.546875 8.21875 
Q 39.3125 8.34375 39.59375 8.59375 
Q 40.765625 9.859375 42 17.828125 
L 44.921875 17.828125 
L 42.09375 0 
z
" id="Cmr10-32"/>
     <path d="M 9.421875 54.6875 
L 18.40625 54.6875 
L 18.40625 0 
L 9.421875 0 
z
M 9.421875 75.984375 
L 18.40625 75.984375 
L 18.40625 64.59375 
L 9.421875 64.59375 
z
" id="BitstreamVeraSans-Roman-69"/>
     <path d="M 37.109375 75.984375 
L 37.109375 68.5 
L 28.515625 68.5 
Q 23.6875 68.5 21.796875 66.546875 
Q 19.921875 64.59375 19.921875 59.515625 
L 19.921875 54.6875 
L 34.71875 54.6875 
L 34.71875 47.703125 
L 19.921875 47.703125 
L 19.921875 0 
L 10.890625 0 
L 10.890625 47.703125 
L 2.296875 47.703125 
L 2.296875 54.6875 
L 10.890625 54.6875 
L 10.890625 58.5 
Q 10.890625 67.625 15.140625 71.796875 
Q 19.390625 75.984375 28.609375 75.984375 
z
" id="BitstreamVeraSans-Roman-66"/>
     <path d="M 9.28125 0 
L 9.28125 3.515625 
Q 21.78125 3.515625 21.78125 6.6875 
L 21.78125 59.1875 
Q 16.609375 56.6875 8.6875 56.6875 
L 8.6875 60.203125 
Q 20.953125 60.203125 27.203125 66.609375 
L 28.609375 66.609375 
Q 28.953125 66.609375 29.265625 66.328125 
Q 29.59375 66.0625 29.59375 65.71875 
L 29.59375 6.6875 
Q 29.59375 3.515625 42.09375 3.515625 
L 42.09375 0 
z
" id="Cmr10-31"/>
     <path d="M 18.109375 8.203125 
L 18.109375 -20.796875 
L 9.078125 -20.796875 
L 9.078125 54.6875 
L 18.109375 54.6875 
L 18.109375 46.390625 
Q 20.953125 51.265625 25.265625 53.625 
Q 29.59375 56 35.59375 56 
Q 45.5625 56 51.78125 48.09375 
Q 58.015625 40.1875 58.015625 27.296875 
Q 58.015625 14.40625 51.78125 6.484375 
Q 45.5625 -1.421875 35.59375 -1.421875 
Q 29.59375 -1.421875 25.265625 0.953125 
Q 20.953125 3.328125 18.109375 8.203125 
M 48.6875 27.296875 
Q 48.6875 37.203125 44.609375 42.84375 
Q 40.53125 48.484375 33.40625 48.484375 
Q 26.265625 48.484375 22.1875 42.84375 
Q 18.109375 37.203125 18.109375 27.296875 
Q 18.109375 17.390625 22.1875 11.75 
Q 26.265625 6.109375 33.40625 6.109375 
Q 40.53125 6.109375 44.609375 11.75 
Q 48.6875 17.390625 48.6875 27.296875 
" id="BitstreamVeraSans-Roman-70"/>
    </defs>
    <g transform="translate(317.592 52.6)scale(0.144 -0.144)">
     <use transform="translate(0.0 0.8734374999999943)" xlink:href="#BitstreamVeraSans-Roman-4f"/>
     <use transform="translate(78.7109375 0.8734374999999943)" xlink:href="#BitstreamVeraSans-Roman-75"/>
     <use transform="translate(142.08984375 0.8734374999999943)" xlink:href="#BitstreamVeraSans-Roman-72"/>
     <use transform="translate(183.203125 0.8734374999999943)" xlink:href="#BitstreamVeraSans-Roman-20"/>
     <use transform="translate(214.990234375 0.8734374999999943)" xlink:href="#BitstreamVeraSans-Roman-66"/>
     <use transform="translate(250.1953125 0.8734374999999943)" xlink:href="#BitstreamVeraSans-Roman-69"/>
     <use transform="translate(277.978515625 0.8734374999999943)" xlink:href="#BitstreamVeraSans-Roman-72"/>
     <use transform="translate(319.091796875 0.8734374999999943)" xlink:href="#BitstreamVeraSans-Roman-73"/>
     <use transform="translate(371.19140625 0.8734374999999943)" xlink:href="#BitstreamVeraSans-Roman-74"/>
     <use transform="translate(410.400390625 0.8734374999999943)" xlink:href="#BitstreamVeraSans-Roman-20"/>
     <use transform="translate(442.1875 0.8734374999999943)" xlink:href="#BitstreamVeraSans-Roman-70"/>
     <use transform="translate(505.6640625 0.8734374999999943)" xlink:href="#BitstreamVeraSans-Roman-6c"/>
     <use transform="translate(533.447265625 0.8734374999999943)" xlink:href="#BitstreamVeraSans-Roman-6f"/>
     <use transform="translate(594.62890625 0.8734374999999943)" xlink:href="#BitstreamVeraSans-Roman-74"/>
     <use transform="translate(633.837890625 0.8734374999999943)" xlink:href="#BitstreamVeraSans-Roman-20"/>
     <use transform="translate(665.625 38.3734375)scale(0.7)" xlink:href="#Cmr10-31"/>
     <use transform="translate(665.625 -39.503125)scale(0.7)" xlink:href="#Cmr10-32"/>
     <path d="M 665.625 13.373437 
L 665.625 19.623437 
L 700.625 19.623437 
L 700.625 13.373437 
L 665.625 13.373437 
z
"/>
    </g>
   </g>
   <g id="legend_1">
    <g id="patch_8">
     <path d="M 456.71 111.3045 
L 640.8 111.3045 
L 640.8 64.8 
L 456.71 64.8 
z
" style="fill:#ffffff;stroke:#000000;stroke-linejoin:miter;"/>
    </g>
    <g id="line2d_7">
     <path d="M 466.79 76.46175 
L 486.95 76.46175 
" style="fill:none;stroke:#008000;stroke-dasharray:6.000000,6.000000;stroke-dashoffset:0.0;"/>
    </g>
    <g id="line2d_8"/>
    <g id="text_8">
     <!-- Away Team Goals -->
     <defs>
      <path d="M 34.1875 63.1875 
L 20.796875 26.90625 
L 47.609375 26.90625 
z
M 28.609375 72.90625 
L 39.796875 72.90625 
L 67.578125 0 
L 57.328125 0 
L 50.6875 18.703125 
L 17.828125 18.703125 
L 11.1875 0 
L 0.78125 0 
z
" id="BitstreamVeraSans-Roman-41"/>
      <path d="M 32.171875 -5.078125 
Q 28.375 -14.84375 24.75 -17.8125 
Q 21.140625 -20.796875 15.09375 -20.796875 
L 7.90625 -20.796875 
L 7.90625 -13.28125 
L 13.1875 -13.28125 
Q 16.890625 -13.28125 18.9375 -11.515625 
Q 21 -9.765625 23.484375 -3.21875 
L 25.09375 0.875 
L 2.984375 54.6875 
L 12.5 54.6875 
L 29.59375 11.921875 
L 46.6875 54.6875 
L 56.203125 54.6875 
z
" id="BitstreamVeraSans-Roman-79"/>
      <path d="M 4.203125 54.6875 
L 13.1875 54.6875 
L 24.421875 12.015625 
L 35.59375 54.6875 
L 46.1875 54.6875 
L 57.421875 12.015625 
L 68.609375 54.6875 
L 77.59375 54.6875 
L 63.28125 0 
L 52.6875 0 
L 40.921875 44.828125 
L 29.109375 0 
L 18.5 0 
z
" id="BitstreamVeraSans-Roman-77"/>
     </defs>
     <g transform="translate(502.79 81.50175)scale(0.144 -0.144)">
      <use xlink:href="#BitstreamVeraSans-Roman-41"/>
      <use x="68.345703125" xlink:href="#BitstreamVeraSans-Roman-77"/>
      <use x="150.1328125" xlink:href="#BitstreamVeraSans-Roman-61"/>
      <use x="211.412109375" xlink:href="#BitstreamVeraSans-Roman-79"/>
      <use x="270.591796875" xlink:href="#BitstreamVeraSans-Roman-20"/>
      <use x="302.37890625" xlink:href="#BitstreamVeraSans-Roman-54"/>
      <use x="363.197265625" xlink:href="#BitstreamVeraSans-Roman-65"/>
      <use x="424.720703125" xlink:href="#BitstreamVeraSans-Roman-61"/>
      <use x="486.0" xlink:href="#BitstreamVeraSans-Roman-6d"/>
      <use x="583.412109375" xlink:href="#BitstreamVeraSans-Roman-20"/>
      <use x="615.19921875" xlink:href="#BitstreamVeraSans-Roman-47"/>
      <use x="692.689453125" xlink:href="#BitstreamVeraSans-Roman-6f"/>
      <use x="753.87109375" xlink:href="#BitstreamVeraSans-Roman-61"/>
      <use x="815.150390625" xlink:href="#BitstreamVeraSans-Roman-6c"/>
      <use x="842.93359375" xlink:href="#BitstreamVeraSans-Roman-73"/>
     </g>
    </g>
    <g id="line2d_9">
     <path d="M 466.79 97.59825 
L 486.95 97.59825 
" style="fill:none;stroke:#ff0000;stroke-dasharray:1.000000,3.000000;stroke-dashoffset:0.0;"/>
    </g>
    <g id="line2d_10"/>
    <g id="text_9">
     <!-- Home Team Goals -->
     <defs>
      <path d="M 9.8125 72.90625 
L 19.671875 72.90625 
L 19.671875 43.015625 
L 55.515625 43.015625 
L 55.515625 72.90625 
L 65.375 72.90625 
L 65.375 0 
L 55.515625 0 
L 55.515625 34.71875 
L 19.671875 34.71875 
L 19.671875 0 
L 9.8125 0 
z
" id="BitstreamVeraSans-Roman-48"/>
     </defs>
     <g transform="translate(502.79 102.63825)scale(0.144 -0.144)">
      <use xlink:href="#BitstreamVeraSans-Roman-48"/>
      <use x="75.1953125" xlink:href="#BitstreamVeraSans-Roman-6f"/>
      <use x="136.376953125" xlink:href="#BitstreamVeraSans-Roman-6d"/>
      <use x="233.7890625" xlink:href="#BitstreamVeraSans-Roman-65"/>
      <use x="295.3125" xlink:href="#BitstreamVeraSans-Roman-20"/>
      <use x="327.099609375" xlink:href="#BitstreamVeraSans-Roman-54"/>
      <use x="387.91796875" xlink:href="#BitstreamVeraSans-Roman-65"/>
      <use x="449.44140625" xlink:href="#BitstreamVeraSans-Roman-61"/>
      <use x="510.720703125" xlink:href="#BitstreamVeraSans-Roman-6d"/>
      <use x="608.1328125" xlink:href="#BitstreamVeraSans-Roman-20"/>
      <use x="639.919921875" xlink:href="#BitstreamVeraSans-Roman-47"/>
      <use x="717.41015625" xlink:href="#BitstreamVeraSans-Roman-6f"/>
      <use x="778.591796875" xlink:href="#BitstreamVeraSans-Roman-61"/>
      <use x="839.87109375" xlink:href="#BitstreamVeraSans-Roman-6c"/>
      <use x="867.654296875" xlink:href="#BitstreamVeraSans-Roman-73"/>
     </g>
    </g>
   </g>
  </g>
 </g>
 <defs>
  <clipPath id="peea9ef433d">
   <rect height="460.8" width="558.0" x="90.0" y="57.6"/>
  </clipPath>
 </defs>
</svg>
